<svg xmlns="http://www.w3.org/2000/svg" xmlns:xlink="http://www.w3.org/1999/xlink" id="processonSvg1000" viewBox="92.0 16.0 743.0 482.0" width="743.0" height="482.0"><defs id="ProcessOnDefs1001"><marker id="ProcessOnMarker1015" markerUnits="userSpaceOnUse" orient="auto" markerWidth="16.23606797749979" markerHeight="10.550836550532098" viewBox="-1.0 -1.3763819204711736 16.23606797749979 10.550836550532098" refX="-1.0" refY="3.8990363547948754"><path id="ProcessOnPath1016" d="M12.0 3.8990363547948754L0.0 7.798072709589751V0.0Z" stroke="#323232" stroke-width="2.0" fill="#323232" transform="matrix(1.0,0.0,0.0,1.0,0.0,0.0)"/></marker><marker id="ProcessOnMarker1024" markerUnits="userSpaceOnUse" orient="auto" markerWidth="16.23606797749979" markerHeight="10.550836550532098" viewBox="-1.0 -1.3763819204711736 16.23606797749979 10.550836550532098" refX="-1.0" refY="3.8990363547948754"><path id="ProcessOnPath1025" d="M12.0 3.8990363547948754L0.0 7.798072709589751V0.0Z" stroke="#323232" stroke-width="2.0" fill="#323232" transform="matrix(1.0,0.0,0.0,1.0,0.0,0.0)"/></marker><marker id="ProcessOnMarker1040" markerUnits="userSpaceOnUse" orient="auto" markerWidth="16.23606797749979" markerHeight="10.550836550532098" viewBox="-1.0 -1.3763819204711736 16.23606797749979 10.550836550532098" refX="-1.0" refY="3.8990363547948754"><path id="ProcessOnPath1041" d="M12.0 3.8990363547948754L0.0 7.798072709589751V0.0Z" stroke="#323232" stroke-width="2.0" fill="#323232" transform="matrix(1.0,0.0,0.0,1.0,0.0,0.0)"/></marker><marker id="ProcessOnMarker1044" markerUnits="userSpaceOnUse" orient="auto" markerWidth="16.23606797749979" markerHeight="10.550836550532098" viewBox="-1.0 -1.3763819204711736 16.23606797749979 10.550836550532098" refX="-1.0" refY="3.8990363547948754"><path id="ProcessOnPath1045" d="M12.0 3.8990363547948754L0.0 7.798072709589751V0.0Z" stroke="#323232" stroke-width="2.0" fill="#323232" transform="matrix(1.0,0.0,0.0,1.0,0.0,0.0)"/></marker><marker id="ProcessOnMarker1052" markerUnits="userSpaceOnUse" orient="auto" markerWidth="16.23606797749979" markerHeight="10.550836550532098" viewBox="-1.0 -1.3763819204711736 16.23606797749979 10.550836550532098" refX="-1.0" refY="3.8990363547948754"><path id="ProcessOnPath1053" d="M12.0 3.8990363547948754L0.0 7.798072709589751V0.0Z" stroke="#323232" stroke-width="2.0" fill="#323232" transform="matrix(1.0,0.0,0.0,1.0,0.0,0.0)"/></marker><marker id="ProcessOnMarker1063" markerUnits="userSpaceOnUse" orient="auto" markerWidth="16.23606797749979" markerHeight="10.550836550532098" viewBox="-1.0 -1.3763819204711736 16.23606797749979 10.550836550532098" refX="-1.0" refY="3.8990363547948754"><path id="ProcessOnPath1064" d="M12.0 3.8990363547948754L0.0 7.798072709589751V0.0Z" stroke="#323232" stroke-width="2.0" fill="#323232" transform="matrix(1.0,0.0,0.0,1.0,0.0,0.0)"/></marker><marker id="ProcessOnMarker1098" markerUnits="userSpaceOnUse" orient="auto" markerWidth="16.23606797749979" markerHeight="10.550836550532098" viewBox="-1.0 -1.3763819204711736 16.23606797749979 10.550836550532098" refX="-1.0" refY="3.8990363547948754"><path id="ProcessOnPath1099" d="M12.0 3.8990363547948754L0.0 7.798072709589751V0.0Z" stroke="#323232" stroke-width="2.0" fill="#323232" transform="matrix(1.0,0.0,0.0,1.0,0.0,0.0)"/></marker><marker id="ProcessOnMarker1102" markerUnits="userSpaceOnUse" orient="auto" markerWidth="16.23606797749979" markerHeight="10.550836550532098" viewBox="-1.0 -1.3763819204711736 16.23606797749979 10.550836550532098" refX="-1.0" refY="3.8990363547948754"><path id="ProcessOnPath1103" d="M12.0 3.8990363547948754L0.0 7.798072709589751V0.0Z" stroke="#323232" stroke-width="2.0" fill="#323232" transform="matrix(1.0,0.0,0.0,1.0,0.0,0.0)"/></marker><marker id="ProcessOnMarker1106" markerUnits="userSpaceOnUse" orient="auto" markerWidth="16.23606797749979" markerHeight="10.550836550532098" viewBox="-1.0 -1.3763819204711736 16.23606797749979 10.550836550532098" refX="-1.0" refY="3.8990363547948754"><path id="ProcessOnPath1107" d="M12.0 3.8990363547948754L0.0 7.798072709589751V0.0Z" stroke="#323232" stroke-width="2.0" fill="#323232" transform="matrix(1.0,0.0,0.0,1.0,0.0,0.0)"/></marker><marker id="ProcessOnMarker1110" markerUnits="userSpaceOnUse" orient="auto" markerWidth="16.23606797749979" markerHeight="10.550836550532098" viewBox="-1.0 -1.3763819204711736 16.23606797749979 10.550836550532098" refX="-1.0" refY="3.8990363547948754"><path id="ProcessOnPath1111" d="M12.0 3.8990363547948754L0.0 7.798072709589751V0.0Z" stroke="#323232" stroke-width="2.0" fill="#323232" transform="matrix(1.0,0.0,0.0,1.0,0.0,0.0)"/></marker><marker id="ProcessOnMarker1119" markerUnits="userSpaceOnUse" orient="auto" markerWidth="16.23606797749979" markerHeight="10.550836550532098" viewBox="-1.0 -1.3763819204711736 16.23606797749979 10.550836550532098" refX="-1.0" refY="3.8990363547948754"><path id="ProcessOnPath1120" d="M12.0 3.8990363547948754L0.0 7.798072709589751V0.0Z" stroke="#323232" stroke-width="2.0" fill="#323232" transform="matrix(1.0,0.0,0.0,1.0,0.0,0.0)"/></marker><marker id="ProcessOnMarker1157" markerUnits="userSpaceOnUse" orient="auto" markerWidth="16.23606797749979" markerHeight="10.550836550532098" viewBox="-1.0 -1.3763819204711736 16.23606797749979 10.550836550532098" refX="-1.0" refY="3.8990363547948754"><path id="ProcessOnPath1158" d="M12.0 3.8990363547948754L0.0 7.798072709589751V0.0Z" stroke="#323232" stroke-width="2.0" fill="#323232" transform="matrix(1.0,0.0,0.0,1.0,0.0,0.0)"/></marker><marker id="ProcessOnMarker1161" markerUnits="userSpaceOnUse" orient="auto" markerWidth="16.23606797749979" markerHeight="10.550836550532098" viewBox="-1.0 -1.3763819204711736 16.23606797749979 10.550836550532098" refX="-1.0" refY="3.8990363547948754"><path id="ProcessOnPath1162" d="M12.0 3.8990363547948754L0.0 7.798072709589751V0.0Z" stroke="#323232" stroke-width="2.0" fill="#323232" transform="matrix(1.0,0.0,0.0,1.0,0.0,0.0)"/></marker><marker id="ProcessOnMarker1165" markerUnits="userSpaceOnUse" orient="auto" markerWidth="16.23606797749979" markerHeight="10.550836550532098" viewBox="-1.0 -1.3763819204711736 16.23606797749979 10.550836550532098" refX="-1.0" refY="3.8990363547948754"><path id="ProcessOnPath1166" d="M12.0 3.8990363547948754L0.0 7.798072709589751V0.0Z" stroke="#323232" stroke-width="2.0" fill="#323232" transform="matrix(1.0,0.0,0.0,1.0,0.0,0.0)"/></marker><marker id="ProcessOnMarker1169" markerUnits="userSpaceOnUse" orient="auto" markerWidth="16.23606797749979" markerHeight="10.550836550532098" viewBox="-1.0 -1.3763819204711736 16.23606797749979 10.550836550532098" refX="-1.0" refY="3.8990363547948754"><path id="ProcessOnPath1170" d="M12.0 3.8990363547948754L0.0 7.798072709589751V0.0Z" stroke="#323232" stroke-width="2.0" fill="#323232" transform="matrix(1.0,0.0,0.0,1.0,0.0,0.0)"/></marker><marker id="ProcessOnMarker1173" markerUnits="userSpaceOnUse" orient="auto" markerWidth="16.23606797749979" markerHeight="10.550836550532098" viewBox="-1.0 -1.3763819204711736 16.23606797749979 10.550836550532098" refX="-1.0" refY="3.8990363547948754"><path id="ProcessOnPath1174" d="M12.0 3.8990363547948754L0.0 7.798072709589751V0.0Z" stroke="#323232" stroke-width="2.0" fill="#323232" transform="matrix(1.0,0.0,0.0,1.0,0.0,0.0)"/></marker><marker id="ProcessOnMarker1177" markerUnits="userSpaceOnUse" orient="auto" markerWidth="16.23606797749979" markerHeight="10.550836550532098" viewBox="-1.0 -1.3763819204711736 16.23606797749979 10.550836550532098" refX="-1.0" refY="3.8990363547948754"><path id="ProcessOnPath1178" d="M12.0 3.8990363547948754L0.0 7.798072709589751V0.0Z" stroke="#323232" stroke-width="2.0" fill="#323232" transform="matrix(1.0,0.0,0.0,1.0,0.0,0.0)"/></marker><marker id="ProcessOnMarker1181" markerUnits="userSpaceOnUse" orient="auto" markerWidth="16.23606797749979" markerHeight="10.550836550532098" viewBox="-1.0 -1.3763819204711736 16.23606797749979 10.550836550532098" refX="-1.0" refY="3.8990363547948754"><path id="ProcessOnPath1182" d="M12.0 3.8990363547948754L0.0 7.798072709589751V0.0Z" stroke="#323232" stroke-width="2.0" fill="#323232" transform="matrix(1.0,0.0,0.0,1.0,0.0,0.0)"/></marker></defs><g id="ProcessOnG1002"><path id="ProcessOnPath1003" d="M92.0 16.0H835.0V498.0H92.0V16.0Z" fill="none"/><g id="ProcessOnG1004"><g id="ProcessOnG1005" transform="matrix(1.0,0.0,0.0,1.0,180.0,63.0)" opacity="1.0"><path id="ProcessOnPath1006" d="M0.0 37.0C0.0 -12.333333333333334 84.0 -12.333333333333334 84.0 37.0C84.0 86.33333333333333 0.0 86.33333333333333 0.0 37.0Z" stroke="#323232" stroke-width="2.0" stroke-dasharray="none" opacity="1.0" fill="#ffffff"/><g id="ProcessOnG1007" transform="matrix(1.0,0.0,0.0,1.0,10.0,25.75)"><text id="ProcessOnText1008" fill="#000000" font-size="18" x="31.0" y="18.45" font-family="微软雅黑" font-weight="normal" font-style="normal" text-decoration="none" family="微软雅黑" text-anchor="middle" size="18">游客</text></g></g><g id="ProcessOnG1009" transform="matrix(1.0,0.0,0.0,1.0,333.0,67.0)" opacity="1.0"><path id="ProcessOnPath1010" d="M0.0 33.0L44.0 0.0L88.0 33.0L44.0 66.0Z" stroke="#323232" stroke-width="2.0" stroke-dasharray="none" opacity="1.0" fill="#ffffff"/><g id="ProcessOnG1011" transform="matrix(1.0,0.0,0.0,1.0,10.0,23.33)"><text id="ProcessOnText1012" fill="#000000" font-size="16" x="33.0" y="16.4" font-family="微软雅黑" font-weight="normal" font-style="normal" text-decoration="none" family="微软雅黑" text-anchor="middle" size="16">会员</text></g></g><g id="ProcessOnG1013"><path id="ProcessOnPath1014" d="M264.0 100.0L298.5 100.0L298.5 100.0L317.7639320225002 100.0" stroke="#323232" stroke-width="2.0" stroke-dasharray="none" fill="none" marker-end="url(#ProcessOnMarker1015)"/></g><g id="ProcessOnG1017" transform="matrix(1.0,0.0,0.0,1.0,526.0,67.0)" opacity="1.0"><path id="ProcessOnPath1018" d="M0.0 33.0L44.0 0.0L88.0 33.0L44.0 66.0Z" stroke="#323232" stroke-width="2.0" stroke-dasharray="none" opacity="1.0" fill="#ffffff"/><g id="ProcessOnG1019" transform="matrix(1.0,0.0,0.0,1.0,10.0,13.33)"><text id="ProcessOnText1020" fill="#000000" font-size="16" x="33.0" y="16.4" font-family="微软雅黑" font-weight="normal" font-style="normal" text-decoration="none" family="微软雅黑" text-anchor="middle" size="16">用户</text><text id="ProcessOnText1021" fill="#000000" font-size="16" x="33.0" y="36.4" font-family="微软雅黑" font-weight="normal" font-style="normal" text-decoration="none" family="微软雅黑" text-anchor="middle" size="16">登录</text></g></g><g id="ProcessOnG1022"><path id="ProcessOnPath1023" d="M421.0 100.0L473.5 100.0L473.5 100.0L510.7639320225002 100.0" stroke="#323232" stroke-width="2.0" stroke-dasharray="none" fill="none" marker-end="url(#ProcessOnMarker1024)"/></g><g id="ProcessOnG1026" transform="matrix(1.0,0.0,0.0,1.0,425.0,76.0)" opacity="1.0"><path id="ProcessOnPath1027" d="M0.0 0.0L49.0 0.0L49.0 26.0L0.0 26.0Z" stroke="none" stroke-width="0.0" stroke-dasharray="none" opacity="1.0" fill="none"/><g id="ProcessOnG1028" transform="matrix(1.0,0.0,0.0,1.0,0.0,3.0)"><text id="ProcessOnText1029" fill="#007fff" font-size="16" x="23.5" y="16.4" font-family="微软雅黑" font-weight="normal" font-style="normal" text-decoration="none" family="微软雅黑" text-anchor="middle" size="16">是</text></g></g><g id="ProcessOnG1030" transform="matrix(1.0,0.0,0.0,1.0,365.0,146.0)" opacity="1.0"><path id="ProcessOnPath1031" d="M0.0 0.0L49.0 0.0L49.0 26.0L0.0 26.0Z" stroke="none" stroke-width="0.0" stroke-dasharray="none" opacity="1.0" fill="none"/><g id="ProcessOnG1032" transform="matrix(1.0,0.0,0.0,1.0,0.0,3.0)"><text id="ProcessOnText1033" fill="#ff0000" font-size="16" x="23.5" y="16.4" font-family="微软雅黑" font-weight="normal" font-style="normal" text-decoration="none" family="微软雅黑" text-anchor="middle" size="16">否</text></g></g><g id="ProcessOnG1034" transform="matrix(1.0,0.0,0.0,1.0,429.5,167.0)" opacity="1.0"><path id="ProcessOnPath1035" d="M0.0 4.0Q0.0 0.0 4.0 0.0L76.0 0.0Q80.0 0.0 80.0 4.0L80.0 26.0Q80.0 30.0 76.0 30.0L4.0 30.0Q0.0 30.0 0.0 26.0Z" stroke="#323232" stroke-width="2.0" stroke-dasharray="none" opacity="1.0" fill="#ffffff"/><g id="ProcessOnG1036" transform="matrix(1.0,0.0,0.0,1.0,10.0,5.0)"><text id="ProcessOnText1037" fill="#000000" font-size="16" x="29.0" y="16.4" font-family="微软雅黑" font-weight="normal" font-style="normal" text-decoration="none" family="微软雅黑" text-anchor="middle" size="16">注册</text></g></g><g id="ProcessOnG1038"><path id="ProcessOnPath1039" d="M377.0 133.0L377.0 182.0L414.2639320225002 182.0" stroke="#323232" stroke-width="2.0" stroke-dasharray="none" fill="none" marker-end="url(#ProcessOnMarker1040)"/></g><g id="ProcessOnG1042"><path id="ProcessOnPath1043" d="M570.0 67.0L570.0 37.0L496.0 37.0L496.0 100.0L510.7639320225002 100.0" stroke="#323232" stroke-width="2.0" stroke-dasharray="none" fill="none" marker-end="url(#ProcessOnMarker1044)"/></g><g id="ProcessOnG1046" transform="matrix(1.0,0.0,0.0,1.0,505.0,36.0)" opacity="1.0"><path id="ProcessOnPath1047" d="M0.0 0.0L49.0 0.0L49.0 26.0L0.0 26.0Z" stroke="none" stroke-width="0.0" stroke-dasharray="none" opacity="1.0" fill="none"/><g id="ProcessOnG1048" transform="matrix(1.0,0.0,0.0,1.0,0.0,3.0)"><text id="ProcessOnText1049" fill="#ff0000" font-size="16" x="23.5" y="16.4" font-family="微软雅黑" font-weight="normal" font-style="normal" text-decoration="none" family="微软雅黑" text-anchor="middle" size="16">否</text></g></g><g id="ProcessOnG1050"><path id="ProcessOnPath1051" d="M509.5 182.0L570.0 182.0L570.0 148.2360679774998" stroke="#323232" stroke-width="2.0" stroke-dasharray="none" fill="none" marker-end="url(#ProcessOnMarker1052)"/></g><g id="ProcessOnG1054" transform="matrix(1.0,0.0,0.0,1.0,202.0,172.0)" opacity="1.0"><path id="ProcessOnPath1055" d="M0.0 4.0Q0.0 0.0 4.0 0.0L36.0 0.0Q40.0 0.0 40.0 4.0L40.0 116.0Q40.0 120.0 36.0 120.0L4.0 120.0Q0.0 120.0 0.0 116.0Z" stroke="#323232" stroke-width="2.0" stroke-dasharray="none" opacity="1.0" fill="#ffffff"/><g id="ProcessOnG1056" transform="matrix(1.0,0.0,0.0,1.0,10.0,20.0)"><text id="ProcessOnText1057" fill="#000000" font-size="16" x="9.0" y="16.4" font-family="微软雅黑" font-weight="normal" font-style="normal" text-decoration="none" family="微软雅黑" text-anchor="middle" size="16">匿</text><text id="ProcessOnText1058" fill="#000000" font-size="16" x="9.0" y="36.4" font-family="微软雅黑" font-weight="normal" font-style="normal" text-decoration="none" family="微软雅黑" text-anchor="middle" size="16">名</text><text id="ProcessOnText1059" fill="#000000" font-size="16" x="9.0" y="56.4" font-family="微软雅黑" font-weight="normal" font-style="normal" text-decoration="none" family="微软雅黑" text-anchor="middle" size="16">访</text><text id="ProcessOnText1060" fill="#000000" font-size="16" x="9.0" y="76.4" font-family="微软雅黑" font-weight="normal" font-style="normal" text-decoration="none" family="微软雅黑" text-anchor="middle" size="16">问</text></g></g><g id="ProcessOnG1061"><path id="ProcessOnPath1062" d="M222.0 137.0L222.0 154.5L222.0 154.5L222.0 156.7639320225002" stroke="#323232" stroke-width="2.0" stroke-dasharray="none" fill="none" marker-end="url(#ProcessOnMarker1063)"/></g><g id="ProcessOnG1065" transform="matrix(1.0,0.0,0.0,1.0,112.0,352.0)" opacity="1.0"><path id="ProcessOnPath1066" d="M0.0 4.0Q0.0 0.0 4.0 0.0L36.0 0.0Q40.0 0.0 40.0 4.0L40.0 116.0Q40.0 120.0 36.0 120.0L4.0 120.0Q0.0 120.0 0.0 116.0Z" stroke="#323232" stroke-width="2.0" stroke-dasharray="none" opacity="1.0" fill="#ffffff"/><g id="ProcessOnG1067" transform="matrix(1.0,0.0,0.0,1.0,10.0,20.0)"><text id="ProcessOnText1068" fill="#000000" font-size="16" x="9.0" y="16.4" font-family="微软雅黑" font-weight="normal" font-style="normal" text-decoration="none" family="微软雅黑" text-anchor="middle" size="16">网</text><text id="ProcessOnText1069" fill="#000000" font-size="16" x="9.0" y="36.4" font-family="微软雅黑" font-weight="normal" font-style="normal" text-decoration="none" family="微软雅黑" text-anchor="middle" size="16">站</text><text id="ProcessOnText1070" fill="#000000" font-size="16" x="9.0" y="56.4" font-family="微软雅黑" font-weight="normal" font-style="normal" text-decoration="none" family="微软雅黑" text-anchor="middle" size="16">首</text><text id="ProcessOnText1071" fill="#000000" font-size="16" x="9.0" y="76.4" font-family="微软雅黑" font-weight="normal" font-style="normal" text-decoration="none" family="微软雅黑" text-anchor="middle" size="16">页</text></g></g><g id="ProcessOnG1072" transform="matrix(1.0,0.0,0.0,1.0,192.0,352.0)" opacity="1.0"><path id="ProcessOnPath1073" d="M0.0 4.0Q0.0 0.0 4.0 0.0L36.0 0.0Q40.0 0.0 40.0 4.0L40.0 116.0Q40.0 120.0 36.0 120.0L4.0 120.0Q0.0 120.0 0.0 116.0Z" stroke="#323232" stroke-width="2.0" stroke-dasharray="none" opacity="1.0" fill="#ffffff"/><g id="ProcessOnG1074" transform="matrix(1.0,0.0,0.0,1.0,10.0,10.0)"><text id="ProcessOnText1075" fill="#000000" font-size="16" x="9.0" y="16.4" font-family="微软雅黑" font-weight="normal" font-style="normal" text-decoration="none" family="微软雅黑" text-anchor="middle" size="16">商</text><text id="ProcessOnText1076" fill="#000000" font-size="16" x="9.0" y="36.4" font-family="微软雅黑" font-weight="normal" font-style="normal" text-decoration="none" family="微软雅黑" text-anchor="middle" size="16">品</text><text id="ProcessOnText1077" fill="#000000" font-size="16" x="9.0" y="56.4" font-family="微软雅黑" font-weight="normal" font-style="normal" text-decoration="none" family="微软雅黑" text-anchor="middle" size="16">列</text><text id="ProcessOnText1078" fill="#000000" font-size="16" x="9.0" y="76.4" font-family="微软雅黑" font-weight="normal" font-style="normal" text-decoration="none" family="微软雅黑" text-anchor="middle" size="16">表</text><text id="ProcessOnText1079" fill="#000000" font-size="16" x="9.0" y="96.4" font-family="微软雅黑" font-weight="normal" font-style="normal" text-decoration="none" family="微软雅黑" text-anchor="middle" size="16">页</text></g></g><g id="ProcessOnG1080" transform="matrix(1.0,0.0,0.0,1.0,262.0,352.0)" opacity="1.0"><path id="ProcessOnPath1081" d="M0.0 4.0Q0.0 0.0 4.0 0.0L36.0 0.0Q40.0 0.0 40.0 4.0L40.0 116.0Q40.0 120.0 36.0 120.0L4.0 120.0Q0.0 120.0 0.0 116.0Z" stroke="#323232" stroke-width="2.0" stroke-dasharray="none" opacity="1.0" fill="#ffffff"/><g id="ProcessOnG1082" transform="matrix(1.0,0.0,0.0,1.0,10.0,10.0)"><text id="ProcessOnText1083" fill="#000000" font-size="16" x="9.0" y="16.4" font-family="微软雅黑" font-weight="normal" font-style="normal" text-decoration="none" family="微软雅黑" text-anchor="middle" size="16">商</text><text id="ProcessOnText1084" fill="#000000" font-size="16" x="9.0" y="36.4" font-family="微软雅黑" font-weight="normal" font-style="normal" text-decoration="none" family="微软雅黑" text-anchor="middle" size="16">品</text><text id="ProcessOnText1085" fill="#000000" font-size="16" x="9.0" y="56.4" font-family="微软雅黑" font-weight="normal" font-style="normal" text-decoration="none" family="微软雅黑" text-anchor="middle" size="16">详</text><text id="ProcessOnText1086" fill="#000000" font-size="16" x="9.0" y="76.4" font-family="微软雅黑" font-weight="normal" font-style="normal" text-decoration="none" family="微软雅黑" text-anchor="middle" size="16">情</text><text id="ProcessOnText1087" fill="#000000" font-size="16" x="9.0" y="96.4" font-family="微软雅黑" font-weight="normal" font-style="normal" text-decoration="none" family="微软雅黑" text-anchor="middle" size="16">页</text></g></g><g id="ProcessOnG1088" transform="matrix(1.0,0.0,0.0,1.0,332.0,352.0)" opacity="1.0"><path id="ProcessOnPath1089" d="M0.0 4.0Q0.0 0.0 4.0 0.0L36.0 0.0Q40.0 0.0 40.0 4.0L40.0 116.0Q40.0 120.0 36.0 120.0L4.0 120.0Q0.0 120.0 0.0 116.0Z" stroke="#323232" stroke-width="2.0" stroke-dasharray="none" opacity="1.0" fill="#ffffff"/><g id="ProcessOnG1090" transform="matrix(1.0,0.0,0.0,1.0,10.0,10.0)"><text id="ProcessOnText1091" fill="#000000" font-size="16" x="9.0" y="16.4" font-family="微软雅黑" font-weight="normal" font-style="normal" text-decoration="none" family="微软雅黑" text-anchor="middle" size="16">购</text><text id="ProcessOnText1092" fill="#000000" font-size="16" x="9.0" y="36.4" font-family="微软雅黑" font-weight="normal" font-style="normal" text-decoration="none" family="微软雅黑" text-anchor="middle" size="16">物</text><text id="ProcessOnText1093" fill="#000000" font-size="16" x="9.0" y="56.4" font-family="微软雅黑" font-weight="normal" font-style="normal" text-decoration="none" family="微软雅黑" text-anchor="middle" size="16">车</text><text id="ProcessOnText1094" fill="#000000" font-size="16" x="9.0" y="76.4" font-family="微软雅黑" font-weight="normal" font-style="normal" text-decoration="none" family="微软雅黑" text-anchor="middle" size="16">管</text><text id="ProcessOnText1095" fill="#000000" font-size="16" x="9.0" y="96.4" font-family="微软雅黑" font-weight="normal" font-style="normal" text-decoration="none" family="微软雅黑" text-anchor="middle" size="16">理</text></g></g><g id="ProcessOnG1096"><path id="ProcessOnPath1097" d="M222.0 292.0L222.0 322.0L212.0 322.0L212.0 336.7639320225002" stroke="#323232" stroke-width="2.0" stroke-dasharray="none" fill="none" marker-end="url(#ProcessOnMarker1098)"/></g><g id="ProcessOnG1100"><path id="ProcessOnPath1101" d="M222.0 292.0L222.0 322.0L132.0 322.0L132.0 336.7639320225002" stroke="#323232" stroke-width="2.0" stroke-dasharray="none" fill="none" marker-end="url(#ProcessOnMarker1102)"/></g><g id="ProcessOnG1104"><path id="ProcessOnPath1105" d="M222.0 292.0L222.0 322.0L282.0 322.0L282.0 336.7639320225002" stroke="#323232" stroke-width="2.0" stroke-dasharray="none" fill="none" marker-end="url(#ProcessOnMarker1106)"/></g><g id="ProcessOnG1108"><path id="ProcessOnPath1109" d="M222.0 292.0L222.0 322.0L352.0 322.0L352.0 336.7639320225002" stroke="#323232" stroke-width="2.0" stroke-dasharray="none" fill="none" marker-end="url(#ProcessOnMarker1110)"/></g><g id="ProcessOnG1112" transform="matrix(1.0,0.0,0.0,1.0,630.0,173.0)" opacity="1.0"><path id="ProcessOnPath1113" d="M0.0 37.0C0.0 -12.333333333333334 84.0 -12.333333333333334 84.0 37.0C84.0 86.33333333333333 0.0 86.33333333333333 0.0 37.0Z" stroke="#323232" stroke-width="2.0" stroke-dasharray="none" opacity="1.0" fill="#ffffff"/><g id="ProcessOnG1114" transform="matrix(1.0,0.0,0.0,1.0,10.0,14.5)"><text id="ProcessOnText1115" fill="#000000" font-size="18" x="31.0" y="18.45" font-family="微软雅黑" font-weight="normal" font-style="normal" text-decoration="none" family="微软雅黑" text-anchor="middle" size="18">会员</text><text id="ProcessOnText1116" fill="#000000" font-size="18" x="31.0" y="40.95" font-family="微软雅黑" font-weight="normal" font-style="normal" text-decoration="none" family="微软雅黑" text-anchor="middle" size="18">用户</text></g></g><g id="ProcessOnG1117"><path id="ProcessOnPath1118" d="M614.0 100.0L672.0 100.0L672.0 157.7639320225002" stroke="#323232" stroke-width="2.0" stroke-dasharray="none" fill="none" marker-end="url(#ProcessOnMarker1119)"/></g><g id="ProcessOnG1121" transform="matrix(1.0,0.0,0.0,1.0,655.0,106.0)" opacity="1.0"><path id="ProcessOnPath1122" d="M0.0 0.0L49.0 0.0L49.0 26.0L0.0 26.0Z" stroke="none" stroke-width="0.0" stroke-dasharray="none" opacity="1.0" fill="none"/><g id="ProcessOnG1123" transform="matrix(1.0,0.0,0.0,1.0,0.0,3.0)"><text id="ProcessOnText1124" fill="#007fff" font-size="16" x="23.5" y="16.4" font-family="微软雅黑" font-weight="normal" font-style="normal" text-decoration="none" family="微软雅黑" text-anchor="middle" size="16">是</text></g></g><g id="ProcessOnG1125" transform="matrix(1.0,0.0,0.0,1.0,492.0,352.0)" opacity="1.0"><path id="ProcessOnPath1126" d="M0.0 4.0Q0.0 0.0 4.0 0.0L36.0 0.0Q40.0 0.0 40.0 4.0L40.0 116.0Q40.0 120.0 36.0 120.0L4.0 120.0Q0.0 120.0 0.0 116.0Z" stroke="#323232" stroke-width="2.0" stroke-dasharray="none" opacity="1.0" fill="#ffffff"/><g id="ProcessOnG1127" transform="matrix(1.0,0.0,0.0,1.0,10.0,20.0)"><text id="ProcessOnText1128" fill="#000000" font-size="16" x="9.0" y="16.4" font-family="微软雅黑" font-weight="normal" font-style="normal" text-decoration="none" family="微软雅黑" text-anchor="middle" size="16">订</text><text id="ProcessOnText1129" fill="#000000" font-size="16" x="9.0" y="36.4" font-family="微软雅黑" font-weight="normal" font-style="normal" text-decoration="none" family="微软雅黑" text-anchor="middle" size="16">单</text><text id="ProcessOnText1130" fill="#000000" font-size="16" x="9.0" y="56.4" font-family="微软雅黑" font-weight="normal" font-style="normal" text-decoration="none" family="微软雅黑" text-anchor="middle" size="16">处</text><text id="ProcessOnText1131" fill="#000000" font-size="16" x="9.0" y="76.4" font-family="微软雅黑" font-weight="normal" font-style="normal" text-decoration="none" family="微软雅黑" text-anchor="middle" size="16">理</text></g></g><g id="ProcessOnG1132" transform="matrix(1.0,0.0,0.0,1.0,572.0,352.0)" opacity="1.0"><path id="ProcessOnPath1133" d="M0.0 4.0Q0.0 0.0 4.0 0.0L36.0 0.0Q40.0 0.0 40.0 4.0L40.0 116.0Q40.0 120.0 36.0 120.0L4.0 120.0Q0.0 120.0 0.0 116.0Z" stroke="#323232" stroke-width="2.0" stroke-dasharray="none" opacity="1.0" fill="#ffffff"/><g id="ProcessOnG1134" transform="matrix(1.0,0.0,0.0,1.0,10.0,20.0)"><text id="ProcessOnText1135" fill="#000000" font-size="16" x="9.0" y="16.4" font-family="微软雅黑" font-weight="normal" font-style="normal" text-decoration="none" family="微软雅黑" text-anchor="middle" size="16">会</text><text id="ProcessOnText1136" fill="#000000" font-size="16" x="9.0" y="36.4" font-family="微软雅黑" font-weight="normal" font-style="normal" text-decoration="none" family="微软雅黑" text-anchor="middle" size="16">员</text><text id="ProcessOnText1137" fill="#000000" font-size="16" x="9.0" y="56.4" font-family="微软雅黑" font-weight="normal" font-style="normal" text-decoration="none" family="微软雅黑" text-anchor="middle" size="16">中</text><text id="ProcessOnText1138" fill="#000000" font-size="16" x="9.0" y="76.4" font-family="微软雅黑" font-weight="normal" font-style="normal" text-decoration="none" family="微软雅黑" text-anchor="middle" size="16">心</text></g></g><g id="ProcessOnG1139" transform="matrix(1.0,0.0,0.0,1.0,695.0,304.0)" opacity="1.0"><path id="ProcessOnPath1140" d="M0.0 4.0Q0.0 0.0 4.0 0.0L116.0 0.0Q120.0 0.0 120.0 4.0L120.0 26.0Q120.0 30.0 116.0 30.0L4.0 30.0Q0.0 30.0 0.0 26.0Z" stroke="#323232" stroke-width="2.0" stroke-dasharray="none" opacity="1.0" fill="#ffffff"/><g id="ProcessOnG1141" transform="matrix(1.0,0.0,0.0,1.0,10.0,5.0)"><text id="ProcessOnText1142" fill="#000000" font-size="16" x="49.0" y="16.4" font-family="微软雅黑" font-weight="normal" font-style="normal" text-decoration="none" family="微软雅黑" text-anchor="middle" size="16">个人信息管理</text></g></g><g id="ProcessOnG1143" transform="matrix(1.0,0.0,0.0,1.0,695.0,354.0)" opacity="1.0"><path id="ProcessOnPath1144" d="M0.0 4.0Q0.0 0.0 4.0 0.0L116.0 0.0Q120.0 0.0 120.0 4.0L120.0 26.0Q120.0 30.0 116.0 30.0L4.0 30.0Q0.0 30.0 0.0 26.0Z" stroke="#323232" stroke-width="2.0" stroke-dasharray="none" opacity="1.0" fill="#ffffff"/><g id="ProcessOnG1145" transform="matrix(1.0,0.0,0.0,1.0,10.0,5.0)"><text id="ProcessOnText1146" fill="#000000" font-size="16" x="49.0" y="16.4" font-family="微软雅黑" font-weight="normal" font-style="normal" text-decoration="none" family="微软雅黑" text-anchor="middle" size="16">修改密码</text></g></g><g id="ProcessOnG1147" transform="matrix(1.0,0.0,0.0,1.0,695.0,400.0)" opacity="1.0"><path id="ProcessOnPath1148" d="M0.0 4.0Q0.0 0.0 4.0 0.0L116.0 0.0Q120.0 0.0 120.0 4.0L120.0 26.0Q120.0 30.0 116.0 30.0L4.0 30.0Q0.0 30.0 0.0 26.0Z" stroke="#323232" stroke-width="2.0" stroke-dasharray="none" opacity="1.0" fill="#ffffff"/><g id="ProcessOnG1149" transform="matrix(1.0,0.0,0.0,1.0,10.0,5.0)"><text id="ProcessOnText1150" fill="#000000" font-size="16" x="49.0" y="16.4" font-family="微软雅黑" font-weight="normal" font-style="normal" text-decoration="none" family="微软雅黑" text-anchor="middle" size="16">我的订单</text></g></g><g id="ProcessOnG1151" transform="matrix(1.0,0.0,0.0,1.0,695.0,448.0)" opacity="1.0"><path id="ProcessOnPath1152" d="M0.0 4.0Q0.0 0.0 4.0 0.0L116.0 0.0Q120.0 0.0 120.0 4.0L120.0 26.0Q120.0 30.0 116.0 30.0L4.0 30.0Q0.0 30.0 0.0 26.0Z" stroke="#323232" stroke-width="2.0" stroke-dasharray="none" opacity="1.0" fill="#ffffff"/><g id="ProcessOnG1153" transform="matrix(1.0,0.0,0.0,1.0,10.0,5.0)"><text id="ProcessOnText1154" fill="#000000" font-size="16" x="49.0" y="16.4" font-family="微软雅黑" font-weight="normal" font-style="normal" text-decoration="none" family="微软雅黑" text-anchor="middle" size="16">我的收藏</text></g></g><g id="ProcessOnG1155"><path id="ProcessOnPath1156" d="M672.0 247.0L672.0 299.5L512.0 299.5L512.0 336.7639320225002" stroke="#323232" stroke-width="2.0" stroke-dasharray="none" fill="none" marker-end="url(#ProcessOnMarker1157)"/></g><g id="ProcessOnG1159"><path id="ProcessOnPath1160" d="M672.0 247.0L672.0 299.5L592.0 299.5L592.0 336.7639320225002" stroke="#323232" stroke-width="2.0" stroke-dasharray="none" fill="none" marker-end="url(#ProcessOnMarker1161)"/></g><g id="ProcessOnG1163"><path id="ProcessOnPath1164" d="M672.0 247.0L672.0 301.0L241.2360679774998 301.0" stroke="#323232" stroke-width="2.0" stroke-dasharray="none" fill="none" marker-end="url(#ProcessOnMarker1165)"/></g><g id="ProcessOnG1167"><path id="ProcessOnPath1168" d="M612.0 412.0L653.5 412.0L653.5 415.0L679.7639320225002 415.0" stroke="#323232" stroke-width="2.0" stroke-dasharray="none" fill="none" marker-end="url(#ProcessOnMarker1169)"/></g><g id="ProcessOnG1171"><path id="ProcessOnPath1172" d="M612.0 412.0L653.5 412.0L653.5 463.0L679.7639320225002 463.0" stroke="#323232" stroke-width="2.0" stroke-dasharray="none" fill="none" marker-end="url(#ProcessOnMarker1173)"/></g><g id="ProcessOnG1175"><path id="ProcessOnPath1176" d="M612.0 412.0L653.5 412.0L653.5 369.0L679.7639320225002 369.0" stroke="#323232" stroke-width="2.0" stroke-dasharray="none" fill="none" marker-end="url(#ProcessOnMarker1177)"/></g><g id="ProcessOnG1179"><path id="ProcessOnPath1180" d="M612.0 412.0L653.5 412.0L653.5 319.0L679.7639320225002 319.0" stroke="#323232" stroke-width="2.0" stroke-dasharray="none" fill="none" marker-end="url(#ProcessOnMarker1181)"/></g></g></g></svg>