<svg xmlns="http://www.w3.org/2000/svg" xmlns:xlink="http://www.w3.org/1999/xlink" id="processonSvg1000" viewBox="75.0 38.0 771.0 470.0" width="771.0" height="470.0"><defs id="ProcessOnDefs1001"><marker id="ProcessOnMarker1019" markerUnits="userSpaceOnUse" orient="auto" markerWidth="16.23606797749979" markerHeight="10.550836550532098" viewBox="-1.0 -1.3763819204711736 16.23606797749979 10.550836550532098" refX="-1.0" refY="3.8990363547948754"><path id="ProcessOnPath1020" d="M12.0 3.8990363547948754L0.0 7.798072709589751V0.0Z" stroke="#323232" stroke-width="2.0" fill="#323232" transform="matrix(1.0,0.0,0.0,1.0,0.0,0.0)"/></marker><marker id="ProcessOnMarker1023" markerUnits="userSpaceOnUse" orient="auto" markerWidth="16.23606797749979" markerHeight="10.550836550532098" viewBox="-1.0 -1.3763819204711736 16.23606797749979 10.550836550532098" refX="-1.0" refY="3.8990363547948754"><path id="ProcessOnPath1024" d="M12.0 3.8990363547948754L0.0 7.798072709589751V0.0Z" stroke="#323232" stroke-width="2.0" fill="#323232" transform="matrix(1.0,0.0,0.0,1.0,0.0,0.0)"/></marker><marker id="ProcessOnMarker1113" markerUnits="userSpaceOnUse" orient="auto" markerWidth="16.23606797749979" markerHeight="10.550836550532098" viewBox="-1.0 -1.3763819204711736 16.23606797749979 10.550836550532098" refX="-1.0" refY="3.8990363547948754"><path id="ProcessOnPath1114" d="M12.0 3.8990363547948754L0.0 7.798072709589751V0.0Z" stroke="#323232" stroke-width="2.0" fill="#323232" transform="matrix(1.0,0.0,0.0,1.0,0.0,0.0)"/></marker><marker id="ProcessOnMarker1117" markerUnits="userSpaceOnUse" orient="auto" markerWidth="16.23606797749979" markerHeight="10.550836550532098" viewBox="-1.0 -1.3763819204711736 16.23606797749979 10.550836550532098" refX="-1.0" refY="3.8990363547948754"><path id="ProcessOnPath1118" d="M12.0 3.8990363547948754L0.0 7.798072709589751V0.0Z" stroke="#323232" stroke-width="2.0" fill="#323232" transform="matrix(1.0,0.0,0.0,1.0,0.0,0.0)"/></marker><marker id="ProcessOnMarker1121" markerUnits="userSpaceOnUse" orient="auto" markerWidth="16.23606797749979" markerHeight="10.550836550532098" viewBox="-1.0 -1.3763819204711736 16.23606797749979 10.550836550532098" refX="-1.0" refY="3.8990363547948754"><path id="ProcessOnPath1122" d="M12.0 3.8990363547948754L0.0 7.798072709589751V0.0Z" stroke="#323232" stroke-width="2.0" fill="#323232" transform="matrix(1.0,0.0,0.0,1.0,0.0,0.0)"/></marker><marker id="ProcessOnMarker1125" markerUnits="userSpaceOnUse" orient="auto" markerWidth="16.23606797749979" markerHeight="10.550836550532098" viewBox="-1.0 -1.3763819204711736 16.23606797749979 10.550836550532098" refX="-1.0" refY="3.8990363547948754"><path id="ProcessOnPath1126" d="M12.0 3.8990363547948754L0.0 7.798072709589751V0.0Z" stroke="#323232" stroke-width="2.0" fill="#323232" transform="matrix(1.0,0.0,0.0,1.0,0.0,0.0)"/></marker><marker id="ProcessOnMarker1129" markerUnits="userSpaceOnUse" orient="auto" markerWidth="16.23606797749979" markerHeight="10.550836550532098" viewBox="-1.0 -1.3763819204711736 16.23606797749979 10.550836550532098" refX="-1.0" refY="3.8990363547948754"><path id="ProcessOnPath1130" d="M12.0 3.8990363547948754L0.0 7.798072709589751V0.0Z" stroke="#323232" stroke-width="2.0" fill="#323232" transform="matrix(1.0,0.0,0.0,1.0,0.0,0.0)"/></marker><marker id="ProcessOnMarker1133" markerUnits="userSpaceOnUse" orient="auto" markerWidth="16.23606797749979" markerHeight="10.550836550532098" viewBox="-1.0 -1.3763819204711736 16.23606797749979 10.550836550532098" refX="-1.0" refY="3.8990363547948754"><path id="ProcessOnPath1134" d="M12.0 3.8990363547948754L0.0 7.798072709589751V0.0Z" stroke="#323232" stroke-width="2.0" fill="#323232" transform="matrix(1.0,0.0,0.0,1.0,0.0,0.0)"/></marker><marker id="ProcessOnMarker1137" markerUnits="userSpaceOnUse" orient="auto" markerWidth="16.23606797749979" markerHeight="10.550836550532098" viewBox="-1.0 -1.3763819204711736 16.23606797749979 10.550836550532098" refX="-1.0" refY="3.8990363547948754"><path id="ProcessOnPath1138" d="M12.0 3.8990363547948754L0.0 7.798072709589751V0.0Z" stroke="#323232" stroke-width="2.0" fill="#323232" transform="matrix(1.0,0.0,0.0,1.0,0.0,0.0)"/></marker><marker id="ProcessOnMarker1141" markerUnits="userSpaceOnUse" orient="auto" markerWidth="16.23606797749979" markerHeight="10.550836550532098" viewBox="-1.0 -1.3763819204711736 16.23606797749979 10.550836550532098" refX="-1.0" refY="3.8990363547948754"><path id="ProcessOnPath1142" d="M12.0 3.8990363547948754L0.0 7.798072709589751V0.0Z" stroke="#323232" stroke-width="2.0" fill="#323232" transform="matrix(1.0,0.0,0.0,1.0,0.0,0.0)"/></marker><marker id="ProcessOnMarker1145" markerUnits="userSpaceOnUse" orient="auto" markerWidth="16.23606797749979" markerHeight="10.550836550532098" viewBox="-1.0 -1.3763819204711736 16.23606797749979 10.550836550532098" refX="-1.0" refY="3.8990363547948754"><path id="ProcessOnPath1146" d="M12.0 3.8990363547948754L0.0 7.798072709589751V0.0Z" stroke="#323232" stroke-width="2.0" fill="#323232" transform="matrix(1.0,0.0,0.0,1.0,0.0,0.0)"/></marker><marker id="ProcessOnMarker1149" markerUnits="userSpaceOnUse" orient="auto" markerWidth="16.23606797749979" markerHeight="10.550836550532098" viewBox="-1.0 -1.3763819204711736 16.23606797749979 10.550836550532098" refX="-1.0" refY="3.8990363547948754"><path id="ProcessOnPath1150" d="M12.0 3.8990363547948754L0.0 7.798072709589751V0.0Z" stroke="#323232" stroke-width="2.0" fill="#323232" transform="matrix(1.0,0.0,0.0,1.0,0.0,0.0)"/></marker><marker id="ProcessOnMarker1153" markerUnits="userSpaceOnUse" orient="auto" markerWidth="16.23606797749979" markerHeight="10.550836550532098" viewBox="-1.0 -1.3763819204711736 16.23606797749979 10.550836550532098" refX="-1.0" refY="3.8990363547948754"><path id="ProcessOnPath1154" d="M12.0 3.8990363547948754L0.0 7.798072709589751V0.0Z" stroke="#323232" stroke-width="2.0" fill="#323232" transform="matrix(1.0,0.0,0.0,1.0,0.0,0.0)"/></marker><marker id="ProcessOnMarker1173" markerUnits="userSpaceOnUse" orient="auto" markerWidth="16.23606797749979" markerHeight="10.550836550532098" viewBox="-1.0 -1.3763819204711736 16.23606797749979 10.550836550532098" refX="-1.0" refY="3.8990363547948754"><path id="ProcessOnPath1174" d="M12.0 3.8990363547948754L0.0 7.798072709589751V0.0Z" stroke="#323232" stroke-width="2.0" fill="#323232" transform="matrix(1.0,0.0,0.0,1.0,0.0,0.0)"/></marker><marker id="ProcessOnMarker1177" markerUnits="userSpaceOnUse" orient="auto" markerWidth="16.23606797749979" markerHeight="10.550836550532098" viewBox="-1.0 -1.3763819204711736 16.23606797749979 10.550836550532098" refX="-1.0" refY="3.8990363547948754"><path id="ProcessOnPath1178" d="M12.0 3.8990363547948754L0.0 7.798072709589751V0.0Z" stroke="#323232" stroke-width="2.0" fill="#323232" transform="matrix(1.0,0.0,0.0,1.0,0.0,0.0)"/></marker></defs><g id="ProcessOnG1002"><path id="ProcessOnPath1003" d="M75.0 38.0H846.0V508.0H75.0V38.0Z" fill="none"/><g id="ProcessOnG1004"><g id="ProcessOnG1005" transform="matrix(1.0,0.0,0.0,1.0,383.0,58.0)" opacity="1.0"><path id="ProcessOnPath1006" d="M0.0 4.0Q0.0 0.0 4.0 0.0L112.0 0.0Q116.0 0.0 116.0 4.0L116.0 31.0Q116.0 35.0 112.0 35.0L4.0 35.0Q0.0 35.0 0.0 31.0Z" stroke="#323232" stroke-width="2.0" stroke-dasharray="none" opacity="1.0" fill="#ffffff"/><g id="ProcessOnG1007" transform="matrix(1.0,0.0,0.0,1.0,10.0,7.5)"><text id="ProcessOnText1008" fill="#000000" font-size="16" x="47.0" y="16.4" font-family="微软雅黑" font-weight="normal" font-style="normal" text-decoration="none" family="微软雅黑" text-anchor="middle" size="16">B/C商城项目</text></g></g><g id="ProcessOnG1009" transform="matrix(1.0,0.0,0.0,1.0,225.0,142.0)" opacity="1.0"><path id="ProcessOnPath1010" d="M0.0 4.0Q0.0 0.0 4.0 0.0L88.0 0.0Q92.0 0.0 92.0 4.0L92.0 32.0Q92.0 36.0 88.0 36.0L4.0 36.0Q0.0 36.0 0.0 32.0Z" stroke="#323232" stroke-width="2.0" stroke-dasharray="none" opacity="1.0" fill="#ffffff"/><g id="ProcessOnG1011" transform="matrix(1.0,0.0,0.0,1.0,10.0,8.0)"><text id="ProcessOnText1012" fill="#000000" font-size="16" x="35.0" y="16.4" font-family="微软雅黑" font-weight="normal" font-style="normal" text-decoration="none" family="微软雅黑" text-anchor="middle" size="16">网站前台</text></g></g><g id="ProcessOnG1013" transform="matrix(1.0,0.0,0.0,1.0,559.0,142.0)" opacity="1.0"><path id="ProcessOnPath1014" d="M0.0 4.0Q0.0 0.0 4.0 0.0L99.0 0.0Q103.0 0.0 103.0 4.0L103.0 32.0Q103.0 36.0 99.0 36.0L4.0 36.0Q0.0 36.0 0.0 32.0Z" stroke="#323232" stroke-width="2.0" stroke-dasharray="none" opacity="1.0" fill="#ffffff"/><g id="ProcessOnG1015" transform="matrix(1.0,0.0,0.0,1.0,10.0,8.0)"><text id="ProcessOnText1016" fill="#000000" font-size="16" x="40.5" y="16.4" font-family="微软雅黑" font-weight="normal" font-style="normal" text-decoration="none" family="微软雅黑" text-anchor="middle" size="16">网站后台</text></g></g><g id="ProcessOnG1017"><path id="ProcessOnPath1018" d="M441.0 93.0L441.0 117.5L271.0 117.5L271.0 126.76393202250021" stroke="#323232" stroke-width="2.0" stroke-dasharray="none" fill="none" marker-end="url(#ProcessOnMarker1019)"/></g><g id="ProcessOnG1021"><path id="ProcessOnPath1022" d="M441.0 93.0L441.0 117.5L610.5 117.5L610.5 126.76393202250021" stroke="#323232" stroke-width="2.0" stroke-dasharray="none" fill="none" marker-end="url(#ProcessOnMarker1023)"/></g><g id="ProcessOnG1025" transform="matrix(1.0,0.0,0.0,1.0,526.0,227.0)" opacity="1.0"><path id="ProcessOnPath1026" d="M0.0 4.0Q0.0 0.0 4.0 0.0L36.0 0.0Q40.0 0.0 40.0 4.0L40.0 123.0Q40.0 127.0 36.0 127.0L4.0 127.0Q0.0 127.0 0.0 123.0Z" stroke="#323232" stroke-width="2.0" stroke-dasharray="none" opacity="1.0" fill="#ffffff"/><g id="ProcessOnG1027" transform="matrix(1.0,0.0,0.0,1.0,10.0,3.5)"><text id="ProcessOnText1028" fill="#000000" font-size="16" x="9.0" y="16.4" font-family="微软雅黑" font-weight="normal" font-style="normal" text-decoration="none" family="微软雅黑" text-anchor="middle" size="16">会</text><text id="ProcessOnText1029" fill="#000000" font-size="16" x="9.0" y="36.4" font-family="微软雅黑" font-weight="normal" font-style="normal" text-decoration="none" family="微软雅黑" text-anchor="middle" size="16">员</text><text id="ProcessOnText1030" fill="#000000" font-size="16" x="9.0" y="56.4" font-family="微软雅黑" font-weight="normal" font-style="normal" text-decoration="none" family="微软雅黑" text-anchor="middle" size="16">信</text><text id="ProcessOnText1031" fill="#000000" font-size="16" x="9.0" y="76.4" font-family="微软雅黑" font-weight="normal" font-style="normal" text-decoration="none" family="微软雅黑" text-anchor="middle" size="16">息</text><text id="ProcessOnText1032" fill="#000000" font-size="16" x="9.0" y="96.4" font-family="微软雅黑" font-weight="normal" font-style="normal" text-decoration="none" family="微软雅黑" text-anchor="middle" size="16">管</text><text id="ProcessOnText1033" fill="#000000" font-size="16" x="9.0" y="116.4" font-family="微软雅黑" font-weight="normal" font-style="normal" text-decoration="none" family="微软雅黑" text-anchor="middle" size="16">理</text></g></g><g id="ProcessOnG1034" transform="matrix(1.0,0.0,0.0,1.0,606.0,227.0)" opacity="1.0"><path id="ProcessOnPath1035" d="M0.0 4.0Q0.0 0.0 4.0 0.0L34.0 0.0Q38.0 0.0 38.0 4.0L38.0 123.0Q38.0 127.0 34.0 127.0L4.0 127.0Q0.0 127.0 0.0 123.0Z" stroke="#323232" stroke-width="2.0" stroke-dasharray="none" opacity="1.0" fill="#ffffff"/><g id="ProcessOnG1036" transform="matrix(1.0,0.0,0.0,1.0,10.0,3.5)"><text id="ProcessOnText1037" fill="#000000" font-size="16" x="8.0" y="16.4" font-family="微软雅黑" font-weight="normal" font-style="normal" text-decoration="none" family="微软雅黑" text-anchor="middle" size="16">商</text><text id="ProcessOnText1038" fill="#000000" font-size="16" x="8.0" y="36.4" font-family="微软雅黑" font-weight="normal" font-style="normal" text-decoration="none" family="微软雅黑" text-anchor="middle" size="16">品</text><text id="ProcessOnText1039" fill="#000000" font-size="16" x="8.0" y="56.4" font-family="微软雅黑" font-weight="normal" font-style="normal" text-decoration="none" family="微软雅黑" text-anchor="middle" size="16">类</text><text id="ProcessOnText1040" fill="#000000" font-size="16" x="8.0" y="76.4" font-family="微软雅黑" font-weight="normal" font-style="normal" text-decoration="none" family="微软雅黑" text-anchor="middle" size="16">别</text><text id="ProcessOnText1041" fill="#000000" font-size="16" x="8.0" y="96.4" font-family="微软雅黑" font-weight="normal" font-style="normal" text-decoration="none" family="微软雅黑" text-anchor="middle" size="16">管</text><text id="ProcessOnText1042" fill="#000000" font-size="16" x="8.0" y="116.4" font-family="微软雅黑" font-weight="normal" font-style="normal" text-decoration="none" family="微软雅黑" text-anchor="middle" size="16">理</text></g></g><g id="ProcessOnG1043" transform="matrix(1.0,0.0,0.0,1.0,696.0,227.0)" opacity="1.0"><path id="ProcessOnPath1044" d="M0.0 4.0Q0.0 0.0 4.0 0.0L36.0 0.0Q40.0 0.0 40.0 4.0L40.0 123.0Q40.0 127.0 36.0 127.0L4.0 127.0Q0.0 127.0 0.0 123.0Z" stroke="#323232" stroke-width="2.0" stroke-dasharray="none" opacity="1.0" fill="#ffffff"/><g id="ProcessOnG1045" transform="matrix(1.0,0.0,0.0,1.0,10.0,3.5)"><text id="ProcessOnText1046" fill="#000000" font-size="16" x="9.0" y="16.4" font-family="微软雅黑" font-weight="normal" font-style="normal" text-decoration="none" family="微软雅黑" text-anchor="middle" size="16">商</text><text id="ProcessOnText1047" fill="#000000" font-size="16" x="9.0" y="36.4" font-family="微软雅黑" font-weight="normal" font-style="normal" text-decoration="none" family="微软雅黑" text-anchor="middle" size="16">品</text><text id="ProcessOnText1048" fill="#000000" font-size="16" x="9.0" y="56.4" font-family="微软雅黑" font-weight="normal" font-style="normal" text-decoration="none" family="微软雅黑" text-anchor="middle" size="16">信</text><text id="ProcessOnText1049" fill="#000000" font-size="16" x="9.0" y="76.4" font-family="微软雅黑" font-weight="normal" font-style="normal" text-decoration="none" family="微软雅黑" text-anchor="middle" size="16">息</text><text id="ProcessOnText1050" fill="#000000" font-size="16" x="9.0" y="96.4" font-family="微软雅黑" font-weight="normal" font-style="normal" text-decoration="none" family="微软雅黑" text-anchor="middle" size="16">管</text><text id="ProcessOnText1051" fill="#000000" font-size="16" x="9.0" y="116.4" font-family="微软雅黑" font-weight="normal" font-style="normal" text-decoration="none" family="微软雅黑" text-anchor="middle" size="16">理</text></g></g><g id="ProcessOnG1052" transform="matrix(1.0,0.0,0.0,1.0,786.0,227.0)" opacity="1.0"><path id="ProcessOnPath1053" d="M0.0 4.0Q0.0 0.0 4.0 0.0L36.0 0.0Q40.0 0.0 40.0 4.0L40.0 123.0Q40.0 127.0 36.0 127.0L4.0 127.0Q0.0 127.0 0.0 123.0Z" stroke="#323232" stroke-width="2.0" stroke-dasharray="none" opacity="1.0" fill="#ffffff"/><g id="ProcessOnG1054" transform="matrix(1.0,0.0,0.0,1.0,10.0,3.5)"><text id="ProcessOnText1055" fill="#000000" font-size="16" x="9.0" y="16.4" font-family="微软雅黑" font-weight="normal" font-style="normal" text-decoration="none" family="微软雅黑" text-anchor="middle" size="16">订</text><text id="ProcessOnText1056" fill="#000000" font-size="16" x="9.0" y="36.4" font-family="微软雅黑" font-weight="normal" font-style="normal" text-decoration="none" family="微软雅黑" text-anchor="middle" size="16">单</text><text id="ProcessOnText1057" fill="#000000" font-size="16" x="9.0" y="56.4" font-family="微软雅黑" font-weight="normal" font-style="normal" text-decoration="none" family="微软雅黑" text-anchor="middle" size="16">信</text><text id="ProcessOnText1058" fill="#000000" font-size="16" x="9.0" y="76.4" font-family="微软雅黑" font-weight="normal" font-style="normal" text-decoration="none" family="微软雅黑" text-anchor="middle" size="16">息</text><text id="ProcessOnText1059" fill="#000000" font-size="16" x="9.0" y="96.4" font-family="微软雅黑" font-weight="normal" font-style="normal" text-decoration="none" family="微软雅黑" text-anchor="middle" size="16">管</text><text id="ProcessOnText1060" fill="#000000" font-size="16" x="9.0" y="116.4" font-family="微软雅黑" font-weight="normal" font-style="normal" text-decoration="none" family="微软雅黑" text-anchor="middle" size="16">理</text></g></g><g id="ProcessOnG1061" transform="matrix(1.0,0.0,0.0,1.0,106.0,227.0)" opacity="1.0"><path id="ProcessOnPath1062" d="M0.0 4.0Q0.0 0.0 4.0 0.0L36.0 0.0Q40.0 0.0 40.0 4.0L40.0 123.0Q40.0 127.0 36.0 127.0L4.0 127.0Q0.0 127.0 0.0 123.0Z" stroke="#323232" stroke-width="2.0" stroke-dasharray="none" opacity="1.0" fill="#ffffff"/><g id="ProcessOnG1063" transform="matrix(1.0,0.0,0.0,1.0,10.0,23.5)"><text id="ProcessOnText1064" fill="#000000" font-size="16" x="9.0" y="16.4" font-family="微软雅黑" font-weight="normal" font-style="normal" text-decoration="none" family="微软雅黑" text-anchor="middle" size="16">会</text><text id="ProcessOnText1065" fill="#000000" font-size="16" x="9.0" y="36.4" font-family="微软雅黑" font-weight="normal" font-style="normal" text-decoration="none" family="微软雅黑" text-anchor="middle" size="16">员</text><text id="ProcessOnText1066" fill="#000000" font-size="16" x="9.0" y="56.4" font-family="微软雅黑" font-weight="normal" font-style="normal" text-decoration="none" family="微软雅黑" text-anchor="middle" size="16">模</text><text id="ProcessOnText1067" fill="#000000" font-size="16" x="9.0" y="76.4" font-family="微软雅黑" font-weight="normal" font-style="normal" text-decoration="none" family="微软雅黑" text-anchor="middle" size="16">块</text></g></g><g id="ProcessOnG1068" transform="matrix(1.0,0.0,0.0,1.0,176.0,227.0)" opacity="1.0"><path id="ProcessOnPath1069" d="M0.0 4.0Q0.0 0.0 4.0 0.0L36.0 0.0Q40.0 0.0 40.0 4.0L40.0 123.0Q40.0 127.0 36.0 127.0L4.0 127.0Q0.0 127.0 0.0 123.0Z" stroke="#323232" stroke-width="2.0" stroke-dasharray="none" opacity="1.0" fill="#ffffff"/><g id="ProcessOnG1070" transform="matrix(1.0,0.0,0.0,1.0,10.0,23.5)"><text id="ProcessOnText1071" fill="#000000" font-size="16" x="9.0" y="16.4" font-family="微软雅黑" font-weight="normal" font-style="normal" text-decoration="none" family="微软雅黑" text-anchor="middle" size="16">商</text><text id="ProcessOnText1072" fill="#000000" font-size="16" x="9.0" y="36.4" font-family="微软雅黑" font-weight="normal" font-style="normal" text-decoration="none" family="微软雅黑" text-anchor="middle" size="16">品</text><text id="ProcessOnText1073" fill="#000000" font-size="16" x="9.0" y="56.4" font-family="微软雅黑" font-weight="normal" font-style="normal" text-decoration="none" family="微软雅黑" text-anchor="middle" size="16">展</text><text id="ProcessOnText1074" fill="#000000" font-size="16" x="9.0" y="76.4" font-family="微软雅黑" font-weight="normal" font-style="normal" text-decoration="none" family="微软雅黑" text-anchor="middle" size="16">示</text></g></g><g id="ProcessOnG1075" transform="matrix(1.0,0.0,0.0,1.0,246.0,227.0)" opacity="1.0"><path id="ProcessOnPath1076" d="M0.0 4.0Q0.0 0.0 4.0 0.0L36.0 0.0Q40.0 0.0 40.0 4.0L40.0 123.0Q40.0 127.0 36.0 127.0L4.0 127.0Q0.0 127.0 0.0 123.0Z" stroke="#323232" stroke-width="2.0" stroke-dasharray="none" opacity="1.0" fill="#ffffff"/><g id="ProcessOnG1077" transform="matrix(1.0,0.0,0.0,1.0,10.0,13.5)"><text id="ProcessOnText1078" fill="#000000" font-size="16" x="9.0" y="16.4" font-family="微软雅黑" font-weight="normal" font-style="normal" text-decoration="none" family="微软雅黑" text-anchor="middle" size="16">购</text><text id="ProcessOnText1079" fill="#000000" font-size="16" x="9.0" y="36.4" font-family="微软雅黑" font-weight="normal" font-style="normal" text-decoration="none" family="微软雅黑" text-anchor="middle" size="16">物</text><text id="ProcessOnText1080" fill="#000000" font-size="16" x="9.0" y="56.4" font-family="微软雅黑" font-weight="normal" font-style="normal" text-decoration="none" family="微软雅黑" text-anchor="middle" size="16">车</text><text id="ProcessOnText1081" fill="#000000" font-size="16" x="9.0" y="76.4" font-family="微软雅黑" font-weight="normal" font-style="normal" text-decoration="none" family="微软雅黑" text-anchor="middle" size="16">管</text><text id="ProcessOnText1082" fill="#000000" font-size="16" x="9.0" y="96.4" font-family="微软雅黑" font-weight="normal" font-style="normal" text-decoration="none" family="微软雅黑" text-anchor="middle" size="16">理</text></g></g><g id="ProcessOnG1083" transform="matrix(1.0,0.0,0.0,1.0,317.0,227.0)" opacity="1.0"><path id="ProcessOnPath1084" d="M0.0 4.0Q0.0 0.0 4.0 0.0L36.0 0.0Q40.0 0.0 40.0 4.0L40.0 123.0Q40.0 127.0 36.0 127.0L4.0 127.0Q0.0 127.0 0.0 123.0Z" stroke="#323232" stroke-width="2.0" stroke-dasharray="none" opacity="1.0" fill="#ffffff"/><g id="ProcessOnG1085" transform="matrix(1.0,0.0,0.0,1.0,10.0,23.5)"><text id="ProcessOnText1086" fill="#000000" font-size="16" x="9.0" y="16.4" font-family="微软雅黑" font-weight="normal" font-style="normal" text-decoration="none" family="微软雅黑" text-anchor="middle" size="16">订</text><text id="ProcessOnText1087" fill="#000000" font-size="16" x="9.0" y="36.4" font-family="微软雅黑" font-weight="normal" font-style="normal" text-decoration="none" family="微软雅黑" text-anchor="middle" size="16">单</text><text id="ProcessOnText1088" fill="#000000" font-size="16" x="9.0" y="56.4" font-family="微软雅黑" font-weight="normal" font-style="normal" text-decoration="none" family="微软雅黑" text-anchor="middle" size="16">处</text><text id="ProcessOnText1089" fill="#000000" font-size="16" x="9.0" y="76.4" font-family="微软雅黑" font-weight="normal" font-style="normal" text-decoration="none" family="微软雅黑" text-anchor="middle" size="16">理</text></g></g><g id="ProcessOnG1090" transform="matrix(1.0,0.0,0.0,1.0,165.0,397.0)" opacity="1.0"><path id="ProcessOnPath1091" d="M0.0 4.0Q0.0 0.0 4.0 0.0L33.0 0.0Q37.0 0.0 37.0 4.0L37.0 87.0Q37.0 91.0 33.0 91.0L4.0 91.0Q0.0 91.0 0.0 87.0Z" stroke="#323232" stroke-width="2.0" stroke-dasharray="none" opacity="1.0" fill="#ffffff"/><g id="ProcessOnG1092" transform="matrix(1.0,0.0,0.0,1.0,10.0,5.5)"><text id="ProcessOnText1093" fill="#000000" font-size="16" x="7.5" y="16.4" font-family="微软雅黑" font-weight="normal" font-style="normal" text-decoration="none" family="微软雅黑" text-anchor="middle" size="16">商</text><text id="ProcessOnText1094" fill="#000000" font-size="16" x="7.5" y="36.4" font-family="微软雅黑" font-weight="normal" font-style="normal" text-decoration="none" family="微软雅黑" text-anchor="middle" size="16">城</text><text id="ProcessOnText1095" fill="#000000" font-size="16" x="7.5" y="56.4" font-family="微软雅黑" font-weight="normal" font-style="normal" text-decoration="none" family="微软雅黑" text-anchor="middle" size="16">首</text><text id="ProcessOnText1096" fill="#000000" font-size="16" x="7.5" y="76.4" font-family="微软雅黑" font-weight="normal" font-style="normal" text-decoration="none" family="微软雅黑" text-anchor="middle" size="16">页</text></g></g><g id="ProcessOnG1097" transform="matrix(1.0,0.0,0.0,1.0,216.0,397.0)" opacity="1.0"><path id="ProcessOnPath1098" d="M0.0 4.0Q0.0 0.0 4.0 0.0L33.0 0.0Q37.0 0.0 37.0 4.0L37.0 87.0Q37.0 91.0 33.0 91.0L4.0 91.0Q0.0 91.0 0.0 87.0Z" stroke="#323232" stroke-width="2.0" stroke-dasharray="none" opacity="1.0" fill="#ffffff"/><g id="ProcessOnG1099" transform="matrix(1.0,0.0,0.0,1.0,10.0,5.5)"><text id="ProcessOnText1100" fill="#000000" font-size="16" x="7.5" y="16.4" font-family="微软雅黑" font-weight="normal" font-style="normal" text-decoration="none" family="微软雅黑" text-anchor="middle" size="16">商</text><text id="ProcessOnText1101" fill="#000000" font-size="16" x="7.5" y="36.4" font-family="微软雅黑" font-weight="normal" font-style="normal" text-decoration="none" family="微软雅黑" text-anchor="middle" size="16">品</text><text id="ProcessOnText1102" fill="#000000" font-size="16" x="7.5" y="56.4" font-family="微软雅黑" font-weight="normal" font-style="normal" text-decoration="none" family="微软雅黑" text-anchor="middle" size="16">列</text><text id="ProcessOnText1103" fill="#000000" font-size="16" x="7.5" y="76.4" font-family="微软雅黑" font-weight="normal" font-style="normal" text-decoration="none" family="微软雅黑" text-anchor="middle" size="16">表</text></g></g><g id="ProcessOnG1104" transform="matrix(1.0,0.0,0.0,1.0,265.0,397.0)" opacity="1.0"><path id="ProcessOnPath1105" d="M0.0 4.0Q0.0 0.0 4.0 0.0L33.0 0.0Q37.0 0.0 37.0 4.0L37.0 87.0Q37.0 91.0 33.0 91.0L4.0 91.0Q0.0 91.0 0.0 87.0Z" stroke="#323232" stroke-width="2.0" stroke-dasharray="none" opacity="1.0" fill="#ffffff"/><g id="ProcessOnG1106" transform="matrix(1.0,0.0,0.0,1.0,10.0,5.5)"><text id="ProcessOnText1107" fill="#000000" font-size="16" x="7.5" y="16.4" font-family="微软雅黑" font-weight="normal" font-style="normal" text-decoration="none" family="微软雅黑" text-anchor="middle" size="16">商</text><text id="ProcessOnText1108" fill="#000000" font-size="16" x="7.5" y="36.4" font-family="微软雅黑" font-weight="normal" font-style="normal" text-decoration="none" family="微软雅黑" text-anchor="middle" size="16">品</text><text id="ProcessOnText1109" fill="#000000" font-size="16" x="7.5" y="56.4" font-family="微软雅黑" font-weight="normal" font-style="normal" text-decoration="none" family="微软雅黑" text-anchor="middle" size="16">详</text><text id="ProcessOnText1110" fill="#000000" font-size="16" x="7.5" y="76.4" font-family="微软雅黑" font-weight="normal" font-style="normal" text-decoration="none" family="微软雅黑" text-anchor="middle" size="16">情</text></g></g><g id="ProcessOnG1111"><path id="ProcessOnPath1112" d="M610.5 178.0L610.5 202.5L546.0 202.5L546.0 211.7639320225002" stroke="#323232" stroke-width="2.0" stroke-dasharray="none" fill="none" marker-end="url(#ProcessOnMarker1113)"/></g><g id="ProcessOnG1115"><path id="ProcessOnPath1116" d="M610.5 178.0L610.5 202.5L625.0 202.5L625.0 211.7639320225002" stroke="#323232" stroke-width="2.0" stroke-dasharray="none" fill="none" marker-end="url(#ProcessOnMarker1117)"/></g><g id="ProcessOnG1119"><path id="ProcessOnPath1120" d="M610.5 178.0L610.5 202.5L716.0 202.5L716.0 211.7639320225002" stroke="#323232" stroke-width="2.0" stroke-dasharray="none" fill="none" marker-end="url(#ProcessOnMarker1121)"/></g><g id="ProcessOnG1123"><path id="ProcessOnPath1124" d="M610.5 178.0L610.5 202.5L806.0 202.5L806.0 211.7639320225002" stroke="#323232" stroke-width="2.0" stroke-dasharray="none" fill="none" marker-end="url(#ProcessOnMarker1125)"/></g><g id="ProcessOnG1127"><path id="ProcessOnPath1128" d="M271.0 178.0L271.0 202.5L337.0 202.5L337.0 211.7639320225002" stroke="#323232" stroke-width="2.0" stroke-dasharray="none" fill="none" marker-end="url(#ProcessOnMarker1129)"/></g><g id="ProcessOnG1131"><path id="ProcessOnPath1132" d="M271.0 178.0L271.0 202.5L266.0 202.5L266.0 211.7639320225002" stroke="#323232" stroke-width="2.0" stroke-dasharray="none" fill="none" marker-end="url(#ProcessOnMarker1133)"/></g><g id="ProcessOnG1135"><path id="ProcessOnPath1136" d="M271.0 178.0L271.0 202.5L196.0 202.5L196.0 211.7639320225002" stroke="#323232" stroke-width="2.0" stroke-dasharray="none" fill="none" marker-end="url(#ProcessOnMarker1137)"/></g><g id="ProcessOnG1139"><path id="ProcessOnPath1140" d="M271.0 178.0L271.0 202.5L126.0 202.5L126.0 211.7639320225002" stroke="#323232" stroke-width="2.0" stroke-dasharray="none" fill="none" marker-end="url(#ProcessOnMarker1141)"/></g><g id="ProcessOnG1143"><path id="ProcessOnPath1144" d="M196.0 354.0L196.0 375.5L283.5 375.5L283.5 381.7639320225002" stroke="#323232" stroke-width="2.0" stroke-dasharray="none" fill="none" marker-end="url(#ProcessOnMarker1145)"/></g><g id="ProcessOnG1147"><path id="ProcessOnPath1148" d="M196.0 354.0L196.0 375.5L183.5 375.5L183.5 381.7639320225002" stroke="#323232" stroke-width="2.0" stroke-dasharray="none" fill="none" marker-end="url(#ProcessOnMarker1149)"/></g><g id="ProcessOnG1151"><path id="ProcessOnPath1152" d="M196.0 354.0L196.0 375.5L234.5 375.5L234.5 381.7639320225002" stroke="#323232" stroke-width="2.0" stroke-dasharray="none" fill="none" marker-end="url(#ProcessOnMarker1153)"/></g><g id="ProcessOnG1155" transform="matrix(1.0,0.0,0.0,1.0,95.0,397.0)" opacity="1.0"><path id="ProcessOnPath1156" d="M0.0 4.0Q0.0 0.0 4.0 0.0L33.0 0.0Q37.0 0.0 37.0 4.0L37.0 87.0Q37.0 91.0 33.0 91.0L4.0 91.0Q0.0 91.0 0.0 87.0Z" stroke="#323232" stroke-width="2.0" stroke-dasharray="none" opacity="1.0" fill="#ffffff"/><g id="ProcessOnG1157" transform="matrix(1.0,0.0,0.0,1.0,10.0,5.5)"><text id="ProcessOnText1158" fill="#000000" font-size="16" x="7.5" y="16.4" font-family="微软雅黑" font-weight="normal" font-style="normal" text-decoration="none" family="微软雅黑" text-anchor="middle" size="16">个</text><text id="ProcessOnText1159" fill="#000000" font-size="16" x="7.5" y="36.4" font-family="微软雅黑" font-weight="normal" font-style="normal" text-decoration="none" family="微软雅黑" text-anchor="middle" size="16">人</text><text id="ProcessOnText1160" fill="#000000" font-size="16" x="7.5" y="56.4" font-family="微软雅黑" font-weight="normal" font-style="normal" text-decoration="none" family="微软雅黑" text-anchor="middle" size="16">中</text><text id="ProcessOnText1161" fill="#000000" font-size="16" x="7.5" y="76.4" font-family="微软雅黑" font-weight="normal" font-style="normal" text-decoration="none" family="微软雅黑" text-anchor="middle" size="16">心</text></g></g><g id="ProcessOnG1162" transform="matrix(1.0,0.0,0.0,1.0,436.0,227.0)" opacity="1.0"><path id="ProcessOnPath1163" d="M0.0 4.0Q0.0 0.0 4.0 0.0L36.0 0.0Q40.0 0.0 40.0 4.0L40.0 123.0Q40.0 127.0 36.0 127.0L4.0 127.0Q0.0 127.0 0.0 123.0Z" stroke="#323232" stroke-width="2.0" stroke-dasharray="none" opacity="1.0" fill="#ffffff"/><g id="ProcessOnG1164" transform="matrix(1.0,0.0,0.0,1.0,10.0,3.5)"><text id="ProcessOnText1165" fill="#000000" font-size="16" x="9.0" y="16.4" font-family="微软雅黑" font-weight="normal" font-style="normal" text-decoration="none" family="微软雅黑" text-anchor="middle" size="16">商</text><text id="ProcessOnText1166" fill="#000000" font-size="16" x="9.0" y="36.4" font-family="微软雅黑" font-weight="normal" font-style="normal" text-decoration="none" family="微软雅黑" text-anchor="middle" size="16">城</text><text id="ProcessOnText1167" fill="#000000" font-size="16" x="9.0" y="56.4" font-family="微软雅黑" font-weight="normal" font-style="normal" text-decoration="none" family="微软雅黑" text-anchor="middle" size="16">管</text><text id="ProcessOnText1168" fill="#000000" font-size="16" x="9.0" y="76.4" font-family="微软雅黑" font-weight="normal" font-style="normal" text-decoration="none" family="微软雅黑" text-anchor="middle" size="16">理</text><text id="ProcessOnText1169" fill="#000000" font-size="16" x="9.0" y="96.4" font-family="微软雅黑" font-weight="normal" font-style="normal" text-decoration="none" family="微软雅黑" text-anchor="middle" size="16">后</text><text id="ProcessOnText1170" fill="#000000" font-size="16" x="9.0" y="116.4" font-family="微软雅黑" font-weight="normal" font-style="normal" text-decoration="none" family="微软雅黑" text-anchor="middle" size="16">台</text></g></g><g id="ProcessOnG1171"><path id="ProcessOnPath1172" d="M126.0 354.0L126.0 375.5L113.5 375.5L113.5 381.7639320225002" stroke="#323232" stroke-width="2.0" stroke-dasharray="none" fill="none" marker-end="url(#ProcessOnMarker1173)"/></g><g id="ProcessOnG1175"><path id="ProcessOnPath1176" d="M610.5 178.0L610.5 202.5L456.0 202.5L456.0 211.7639320225002" stroke="#323232" stroke-width="2.0" stroke-dasharray="none" fill="none" marker-end="url(#ProcessOnMarker1177)"/></g></g></g></svg>